<svg width="28.379395" height="17.760000" viewBox="0 0 28.3794 17.76" fill="none" xmlns="http://www.w3.org/2000/svg" xmlns:xlink="http://www.w3.org/1999/xlink">
	<desc>
			Created with Pixso.
	</desc>
	<defs/>
	<path id="01" d="M8.11207 0C9.80807 0 11.2481 0.344 12.4321 1.032C13.6161 1.72 14.5161 2.728 15.1321 4.056C15.7561 5.384 16.0681 7.004 16.0681 8.916C16.0681 10.716 15.7321 12.28 15.0601 13.608C14.3961 14.928 13.4561 15.952 12.2401 16.68C11.0321 17.4 9.60407 17.76 7.95607 17.76C6.26807 17.76 4.82807 17.416 3.63607 16.728C2.45207 16.04 1.54807 15.032 0.924067 13.704C0.308066 12.376 6.64592e-05 10.756 6.64592e-05 8.844C6.64592e-05 7.044 0.332066 5.484 0.996067 4.164C1.66807 2.836 2.61207 1.812 3.82807 1.092C5.04407 0.364 6.47207 0 8.11207 0ZM10.4041 9.48C10.4041 7.512 10.3121 5.94 10.1281 4.764C9.95207 3.588 9.68007 2.74 9.31207 2.22C8.95207 1.7 8.49207 1.44 7.93207 1.44C7.42007 1.44 6.99607 1.668 6.66007 2.124C6.32407 2.572 6.07207 3.3 5.90407 4.308C5.74407 5.308 5.66407 6.632 5.66407 8.28C5.66407 10.248 5.75207 11.82 5.92807 12.996C6.11207 14.172 6.38407 15.02 6.74407 15.54C7.11207 16.06 7.57607 16.32 8.13607 16.32C8.64807 16.32 9.07207 16.096 9.40807 15.648C9.74407 15.192 9.99207 14.464 10.1521 13.464C10.3201 12.456 10.4041 11.128 10.4041 9.48ZM18.8753 3.288L19.6073 3.288C19.8873 3.288 20.0873 3.36 20.2073 3.504C20.3353 3.648 20.3993 3.92 20.3993 4.32L20.3993 14.268C20.3993 14.588 20.3353 14.832 20.2073 15C20.0873 15.16 19.9113 15.268 19.6793 15.324L18.4793 15.588C17.9433 15.716 17.6753 16.004 17.6753 16.452C17.6753 16.708 17.7593 16.912 17.9273 17.064C18.1033 17.208 18.3713 17.28 18.7313 17.28L27.4553 17.28C27.7673 17.28 27.9993 17.208 28.1513 17.064C28.3033 16.912 28.3793 16.708 28.3793 16.452C28.3793 15.996 28.1553 15.712 27.7073 15.6L26.6393 15.324C26.4233 15.268 26.2553 15.16 26.1353 15C26.0233 14.832 25.9673 14.588 25.9673 14.268L25.9673 1.068C25.9673 0.435999 25.6433 0.120001 24.9953 0.120001C24.7953 0.120001 24.6033 0.143999 24.4193 0.191999C24.2433 0.232 24.0473 0.308001 23.8313 0.42C23.1673 0.74 22.5633 0.983999 22.0193 1.152C21.4753 1.32 20.8113 1.404 20.0273 1.404L18.9473 1.404C18.6033 1.404 18.3313 1.496 18.1313 1.68C17.9313 1.856 17.8313 2.08 17.8313 2.352C17.8313 2.624 17.9153 2.848 18.0833 3.024C18.2513 3.2 18.5153 3.288 18.8753 3.288Z" fill="#0E8784" fill-opacity="1.000000" fill-rule="evenodd"/>
</svg>
