<svg width="32.385742" height="17.759998" viewBox="0 0 32.3857 17.76" fill="none" xmlns="http://www.w3.org/2000/svg" xmlns:xlink="http://www.w3.org/1999/xlink">
	<desc>
			Created with Pixso.
	</desc>
	<defs/>
	<path id="02" d="M8.11207 0C9.80807 0 11.2481 0.344 12.4321 1.032C13.6161 1.72 14.5161 2.728 15.1321 4.056C15.7561 5.384 16.0681 7.004 16.0681 8.916C16.0681 10.716 15.7321 12.28 15.0601 13.608C14.3961 14.928 13.4561 15.952 12.2401 16.68C11.0321 17.4 9.60407 17.76 7.95607 17.76C6.26807 17.76 4.82807 17.416 3.63607 16.728C2.45207 16.04 1.54807 15.032 0.924067 13.704C0.308066 12.376 6.64592e-05 10.756 6.64592e-05 8.844C6.64592e-05 7.044 0.332066 5.484 0.996067 4.164C1.66807 2.836 2.61207 1.812 3.82807 1.092C5.04407 0.364 6.47207 0 8.11207 0ZM10.4041 9.48C10.4041 7.512 10.3121 5.94 10.1281 4.764C9.95207 3.588 9.68007 2.74 9.31207 2.22C8.95207 1.7 8.49207 1.44 7.93207 1.44C7.42007 1.44 6.99607 1.668 6.66007 2.124C6.32407 2.572 6.07207 3.3 5.90407 4.308C5.74407 5.308 5.66407 6.632 5.66407 8.28C5.66407 10.248 5.75207 11.82 5.92807 12.996C6.11207 14.172 6.38407 15.02 6.74407 15.54C7.11207 16.06 7.57607 16.32 8.13607 16.32C8.64807 16.32 9.07207 16.096 9.40807 15.648C9.74407 15.192 9.99207 14.464 10.1521 13.464C10.3201 12.456 10.4041 11.128 10.4041 9.48ZM19.9433 13.224L19.1273 12.6L21.3353 11.472C22.2073 11.024 22.9473 10.508 23.5553 9.924C24.1633 9.34 24.6233 8.656 24.9353 7.872C25.2553 7.088 25.4153 6.176 25.4153 5.136C25.4153 4.176 25.3593 3.412 25.2473 2.844C25.1433 2.268 24.9873 1.852 24.7793 1.596C24.5793 1.34 24.3353 1.212 24.0473 1.212C23.6473 1.212 23.3633 1.396 23.1953 1.764C23.0353 2.132 22.9553 2.64 22.9553 3.288L22.9553 4.956C22.9553 5.692 22.7273 6.28 22.2713 6.72C21.8233 7.16 21.1953 7.38 20.3873 7.38C19.6273 7.38 19.0193 7.144 18.5633 6.672C18.1153 6.2 17.8913 5.536 17.8913 4.68C17.8913 3.864 18.1273 3.1 18.5993 2.388C19.0793 1.676 19.8153 1.1 20.8073 0.66C21.7993 0.219999 23.0673 0 24.6113 0C26.1393 0 27.3913 0.212 28.3673 0.636C29.3433 1.06 30.0633 1.648 30.5273 2.4C30.9993 3.144 31.2353 3.996 31.2353 4.956C31.2353 5.804 30.9953 6.588 30.5153 7.308C30.0353 8.028 29.2873 8.72 28.2713 9.384C27.2633 10.04 25.9673 10.7 24.3833 11.364L19.9433 13.224ZM17.5193 15.12C17.5193 14.176 17.8873 13.424 18.6233 12.864C19.3593 12.296 20.4273 12.012 21.8273 12.012C22.4593 12.012 23.0553 12.052 23.6153 12.132C24.1753 12.204 24.7233 12.288 25.2593 12.384C25.7953 12.48 26.3433 12.568 26.9033 12.648C27.4633 12.72 28.0553 12.756 28.6793 12.756C29.2153 12.756 29.6473 12.656 29.9753 12.456C30.3113 12.248 30.6153 11.924 30.8873 11.484C31.0153 11.276 31.1513 11.132 31.2953 11.052C31.4473 10.972 31.6113 10.94 31.7873 10.956C31.9953 10.972 32.1513 11.072 32.2553 11.256C32.3673 11.432 32.4073 11.716 32.3753 12.108C32.2713 13.468 32.0313 14.564 31.6553 15.396C31.2793 16.22 30.7793 16.82 30.1553 17.196C29.5393 17.572 28.8113 17.76 27.9713 17.76C27.2993 17.76 26.7113 17.664 26.2073 17.472C25.7113 17.288 25.2833 16.98 24.9233 16.548C24.5713 16.116 24.2673 15.532 24.0113 14.796C23.8833 14.404 23.7633 14.148 23.6513 14.028C23.5473 13.908 23.4073 13.848 23.2313 13.848C23.0393 13.848 22.8793 13.94 22.7513 14.124C22.6233 14.3 22.5393 14.592 22.4993 15C22.4433 15.68 22.2993 16.224 22.0673 16.632C21.8353 17.032 21.5233 17.32 21.1313 17.496C20.7473 17.672 20.2873 17.76 19.7513 17.76C19.1033 17.76 18.5673 17.524 18.1433 17.052C17.7273 16.572 17.5193 15.928 17.5193 15.12Z" fill="#83888F" fill-opacity="1.000000" fill-rule="evenodd"/>
</svg>
