<svg width="31.163086" height="17.760010" viewBox="0 0 31.1631 17.76" fill="none" xmlns="http://www.w3.org/2000/svg" xmlns:xlink="http://www.w3.org/1999/xlink">
	<desc>
			Created with Pixso.
	</desc>
	<defs/>
	<path id="03" d="M8.11207 3.8147e-06C9.80807 3.8147e-06 11.2481 0.344004 12.4321 1.032C13.6161 1.72 14.5161 2.728 15.1321 4.056C15.7561 5.384 16.0681 7.004 16.0681 8.916C16.0681 10.716 15.7321 12.28 15.0601 13.608C14.3961 14.928 13.4561 15.952 12.2401 16.68C11.0321 17.4 9.60407 17.76 7.95607 17.76C6.26807 17.76 4.82807 17.416 3.63607 16.728C2.45207 16.04 1.54807 15.032 0.924067 13.704C0.308066 12.376 6.64592e-05 10.756 6.64592e-05 8.84401C6.64592e-05 7.044 0.332066 5.484 0.996067 4.164C1.66807 2.836 2.61207 1.812 3.82807 1.092C5.04407 0.364004 6.47207 3.8147e-06 8.11207 3.8147e-06ZM10.4041 9.48C10.4041 7.512 10.3121 5.94 10.1281 4.764C9.95207 3.588 9.68007 2.74 9.31207 2.22C8.95207 1.7 8.49207 1.44 7.93207 1.44C7.42007 1.44 6.99607 1.668 6.66007 2.124C6.32407 2.572 6.07207 3.3 5.90407 4.308C5.74407 5.308 5.66407 6.632 5.66407 8.28C5.66407 10.248 5.75207 11.82 5.92807 12.996C6.11207 14.172 6.38407 15.02 6.74407 15.54C7.11207 16.06 7.57607 16.32 8.13607 16.32C8.64807 16.32 9.07207 16.096 9.40807 15.648C9.74407 15.192 9.99207 14.464 10.1521 13.464C10.3201 12.456 10.4041 11.128 10.4041 9.48ZM23.8673 8.568L23.4593 8.172C23.6193 8.124 23.7913 8.084 23.9753 8.052C24.1593 8.02 24.3553 7.996 24.5633 7.98C24.7713 7.956 24.9913 7.944 25.2233 7.944C26.3673 7.944 27.3713 8.12 28.2353 8.472C29.0993 8.824 29.7713 9.328 30.2513 9.984C30.7393 10.632 30.9833 11.408 30.9833 12.312C30.9833 13.416 30.6993 14.376 30.1313 15.192C29.5713 16.008 28.7673 16.64 27.7193 17.088C26.6793 17.536 25.4353 17.76 23.9873 17.76C22.5873 17.76 21.4233 17.592 20.4953 17.256C19.5673 16.92 18.8713 16.456 18.4073 15.864C17.9513 15.272 17.7233 14.596 17.7233 13.836C17.7233 13.068 17.9753 12.44 18.4793 11.952C18.9833 11.456 19.6073 11.208 20.3513 11.208C21.1593 11.208 21.7633 11.42 22.1633 11.844C22.5713 12.26 22.7753 12.816 22.7753 13.512L22.7753 14.796C22.7753 15.26 22.8753 15.656 23.0753 15.984C23.2833 16.312 23.5753 16.476 23.9513 16.476C24.3273 16.476 24.6473 16.364 24.9113 16.14C25.1753 15.908 25.3793 15.544 25.5233 15.048C25.6673 14.544 25.7393 13.884 25.7393 13.068C25.7393 11.852 25.5473 10.984 25.1633 10.464C24.7873 9.944 24.2673 9.684 23.6033 9.684L22.7393 9.684C22.4113 9.684 22.1673 9.612 22.0073 9.468C21.8473 9.31601 21.7673 9.104 21.7673 8.832C21.7673 8.624 21.8113 8.44 21.8993 8.28C21.9953 8.12 22.1633 7.936 22.4033 7.728L27.7433 3.084L27.8873 4.572L21.5273 4.572C21.1913 4.572 20.9313 4.632 20.7473 4.752C20.5633 4.864 20.4393 5.052 20.3753 5.316L20.1353 6.264C20.0793 6.496 19.9713 6.684 19.8113 6.828C19.6593 6.964 19.4353 7.032 19.1393 7.032C18.8513 7.032 18.6153 6.956 18.4313 6.804C18.2473 6.644 18.1713 6.404 18.2033 6.084L18.6353 1.596C18.6673 1.252 18.8073 0.980005 19.0553 0.780003C19.3033 0.580004 19.6353 0.480003 20.0513 0.480003L29.8073 0.480003C30.2953 0.480003 30.6433 0.540003 30.8513 0.660004C31.0593 0.780003 31.1633 0.972004 31.1633 1.236C31.1633 1.412 31.0953 1.612 30.9593 1.836C30.8313 2.06 30.5553 2.368 30.1313 2.76L23.8673 8.568Z" fill="#83888F" fill-opacity="1.000000" fill-rule="evenodd"/>
</svg>
