<svg width="32.531250" height="18.167999" viewBox="0 0 32.5312 18.168" fill="none" xmlns="http://www.w3.org/2000/svg" xmlns:xlink="http://www.w3.org/1999/xlink">
	<desc>
			Created with Pixso.
	</desc>
	<defs/>
	<path id="04" d="M8.11207 0.407993C9.80807 0.407993 11.2481 0.751993 12.4321 1.43999C13.6161 2.12799 14.5161 3.13599 15.1321 4.46399C15.7561 5.79199 16.0681 7.41199 16.0681 9.32399C16.0681 11.124 15.7321 12.688 15.0601 14.016C14.3961 15.336 13.4561 16.36 12.2401 17.088C11.0321 17.808 9.60407 18.168 7.95607 18.168C6.26807 18.168 4.82807 17.824 3.63607 17.136C2.45207 16.448 1.54807 15.44 0.924067 14.112C0.308066 12.784 6.64592e-05 11.164 6.64592e-05 9.252C6.64592e-05 7.45199 0.332066 5.89199 0.996067 4.57199C1.66807 3.24399 2.61207 2.21999 3.82807 1.49999C5.04407 0.771994 6.47207 0.407993 8.11207 0.407993ZM10.4041 9.88799C10.4041 7.91999 10.3121 6.34799 10.1281 5.17199C9.95207 3.99599 9.68007 3.14799 9.31207 2.62799C8.95207 2.10799 8.49207 1.84799 7.93207 1.84799C7.42007 1.84799 6.99607 2.07599 6.66007 2.53199C6.32407 2.97999 6.07207 3.70799 5.90407 4.71599C5.74407 5.71599 5.66407 7.03999 5.66407 8.68799C5.66407 10.656 5.75207 12.228 5.92807 13.404C6.11207 14.58 6.38407 15.428 6.74407 15.948C7.11207 16.468 7.57607 16.728 8.13607 16.728C8.64807 16.728 9.07207 16.504 9.40807 16.056C9.74407 15.6 9.99207 14.872 10.1521 13.872C10.3201 12.864 10.4041 11.536 10.4041 9.88799ZM24.6593 10.416C24.6593 10.192 24.6953 9.99999 24.7673 9.83999C24.8473 9.67199 24.9593 9.52399 25.1033 9.39599L28.4153 6.43199C28.6313 6.23199 28.8073 6.10399 28.9433 6.04799C29.0873 5.99199 29.2273 5.96399 29.3633 5.96399C29.5473 5.96399 29.6913 6.01999 29.7953 6.13199C29.9073 6.23599 29.9633 6.40799 29.9633 6.64799L29.9873 14.892C29.9873 15.14 30.0393 15.328 30.1433 15.456C30.2473 15.576 30.3913 15.668 30.5753 15.732L31.3913 16.02C31.6473 16.108 31.8393 16.22 31.9673 16.356C32.1033 16.484 32.1713 16.652 32.1713 16.86C32.1713 17.116 32.0873 17.32 31.9193 17.472C31.7593 17.616 31.5033 17.688 31.1513 17.688L23.3033 17.688C22.6153 17.688 22.2713 17.416 22.2713 16.872C22.2713 16.448 22.5273 16.164 23.0393 16.02L24.0953 15.732C24.2873 15.676 24.4273 15.588 24.5153 15.468C24.6113 15.348 24.6593 15.164 24.6593 14.916L24.6593 10.416ZM21.6113 7.99199C22.0353 7.61599 22.3513 7.26399 22.5593 6.93599C22.7673 6.59999 22.8713 6.27199 22.8713 5.95199C22.8713 5.67199 22.8233 5.41199 22.7273 5.17199C22.6313 4.92399 22.5153 4.67599 22.3793 4.42799C22.2513 4.17999 22.1393 3.91199 22.0433 3.62399C21.9473 3.32799 21.8993 2.99199 21.8993 2.61599C21.8993 2.11199 22.0233 1.66399 22.2713 1.27199C22.5273 0.871992 22.9073 0.559992 23.4113 0.335993C23.9233 0.111994 24.5633 -7.62939e-06 25.3313 -7.62939e-06C26.2353 -7.62939e-06 26.9633 0.219992 27.5153 0.659994C28.0673 1.09199 28.3433 1.71199 28.3433 2.51999C28.3433 2.83999 28.2873 3.17999 28.1753 3.53999C28.0633 3.89199 27.8313 4.29999 27.4793 4.76399C27.1273 5.22799 26.5913 5.77999 25.8713 6.41999L18.9353 12.648L18.6233 11.904L31.5473 11.904C31.8433 11.904 32.0793 11.964 32.2553 12.084C32.4393 12.196 32.5313 12.38 32.5313 12.636C32.5313 13.196 32.1953 13.476 31.5233 13.476L18.2033 13.476C17.8753 13.476 17.6193 13.388 17.4353 13.212C17.2513 13.036 17.1593 12.808 17.1593 12.528C17.1593 12.368 17.2113 12.2 17.3153 12.024C17.4273 11.84 17.6193 11.624 17.8913 11.376L21.6113 7.99199Z" fill="#83888F" fill-opacity="1.000000" fill-rule="evenodd"/>
</svg>
