<svg width="31.112793" height="17.811279" viewBox="0 0 31.1128 17.8113" fill="none" xmlns="http://www.w3.org/2000/svg" xmlns:xlink="http://www.w3.org/1999/xlink">
	<desc>
			Created with Pixso.
	</desc>
	<defs/>
	<path id="05" d="M8.11207 0.0512733C9.80807 0.0512733 11.2481 0.395273 12.4321 1.08327C13.6161 1.77127 14.5161 2.77927 15.1321 4.10727C15.7561 5.43527 16.0681 7.05527 16.0681 8.96727C16.0681 10.7673 15.7321 12.3313 15.0601 13.6593C14.3961 14.9793 13.4561 16.0033 12.2401 16.7313C11.0321 17.4513 9.60407 17.8113 7.95607 17.8113C6.26807 17.8113 4.82807 17.4673 3.63607 16.7793C2.45207 16.0913 1.54807 15.0833 0.924067 13.7553C0.308066 12.4273 6.64592e-05 10.8073 6.64592e-05 8.89528C6.64592e-05 7.09527 0.332066 5.53527 0.996067 4.21527C1.66807 2.88727 2.61207 1.86327 3.82807 1.14327C5.04407 0.415274 6.47207 0.0512733 8.11207 0.0512733ZM10.4041 9.53127C10.4041 7.56327 10.3121 5.99127 10.1281 4.81527C9.95207 3.63927 9.68007 2.79127 9.31207 2.27127C8.95207 1.75127 8.49207 1.49127 7.93207 1.49127C7.42007 1.49127 6.99607 1.71927 6.66007 2.17527C6.32407 2.62327 6.07207 3.35127 5.90407 4.35927C5.74407 5.35927 5.66407 6.68327 5.66407 8.33127C5.66407 10.2993 5.75207 11.8713 5.92807 13.0473C6.11207 14.2233 6.38407 15.0713 6.74407 15.5913C7.11207 16.1113 7.57607 16.3713 8.13607 16.3713C8.64807 16.3713 9.07207 16.1473 9.40807 15.6993C9.74407 15.2433 9.99207 14.5153 10.1521 13.5153C10.3201 12.5073 10.4041 11.1793 10.4041 9.53127ZM17.7473 13.9593C17.7473 13.1753 18.0033 12.5313 18.5153 12.0273C19.0273 11.5153 19.6593 11.2593 20.4113 11.2593C21.2033 11.2593 21.7993 11.4753 22.1993 11.9073C22.5993 12.3393 22.7993 12.8953 22.7993 13.5753L22.7993 15.2433C22.7993 15.6113 22.9033 15.9353 23.1113 16.2153C23.3273 16.4873 23.6393 16.6233 24.0473 16.6233C24.5433 16.6233 24.9513 16.3313 25.2713 15.7473C25.5913 15.1633 25.7513 14.2313 25.7513 12.9513C25.7513 11.5193 25.5073 10.4873 25.0193 9.85527C24.5393 9.22327 23.8953 8.90727 23.0873 8.90727C22.8473 8.90727 22.6113 8.93927 22.3793 9.00327C22.1553 9.06727 21.9273 9.16727 21.6953 9.30327C21.4633 9.43127 21.2113 9.60327 20.9393 9.81927C20.6913 10.0113 20.4793 10.1473 20.3033 10.2273C20.1273 10.2993 19.9353 10.3353 19.7273 10.3353C19.4953 10.3353 19.2873 10.2713 19.1033 10.1433C18.9273 10.0073 18.8393 9.79527 18.8393 9.50727L18.8393 1.52727C18.8393 1.13527 18.9513 0.827272 19.1753 0.603273C19.3993 0.379274 19.7553 0.267273 20.2433 0.267273C20.4273 0.267273 20.6273 0.287273 20.8433 0.327272C21.0593 0.359272 21.3353 0.423273 21.6713 0.519274C22.0873 0.631273 22.5473 0.731272 23.0513 0.819273C23.5553 0.907274 24.0793 0.975273 24.6233 1.02327C25.1753 1.07127 25.7193 1.09527 26.2553 1.09527C27.1833 1.09527 27.9033 1.03127 28.4153 0.903273C28.9273 0.767273 29.3273 0.595274 29.6153 0.387274C29.9113 0.179274 30.1473 0.0592728 30.3233 0.0272732C30.4993 -0.0127258 30.6473 -0.00872612 30.7673 0.0392723C30.8793 0.0792732 30.9713 0.167273 31.0433 0.303274C31.1153 0.431273 31.1313 0.635273 31.0913 0.915274C30.9473 2.05127 30.6393 2.96327 30.1673 3.65127C29.6953 4.33127 29.0433 4.82327 28.2113 5.12727C27.3873 5.42327 26.3713 5.57127 25.1633 5.57127C24.4913 5.57127 23.8033 5.53127 23.0993 5.45127C22.3953 5.36327 21.7273 5.24327 21.0953 5.09127C20.4633 4.93927 19.9193 4.76327 19.4633 4.56327L20.6753 3.08727L20.6753 9.09927L19.9553 8.87127C20.4193 8.45527 20.8793 8.12327 21.3353 7.87527C21.7993 7.61927 22.2993 7.43527 22.8353 7.32327C23.3793 7.21127 24.0113 7.15527 24.7313 7.15527C25.9873 7.15527 27.0833 7.36327 28.0193 7.77927C28.9633 8.19527 29.6953 8.78727 30.2153 9.55527C30.7433 10.3153 31.0073 11.2153 31.0073 12.2553C31.0073 13.4473 30.7073 14.4593 30.1073 15.2913C29.5153 16.1153 28.6793 16.7433 27.5993 17.1753C26.5193 17.5993 25.2593 17.8113 23.8193 17.8113C22.4673 17.8113 21.3393 17.6433 20.4353 17.3073C19.5393 16.9713 18.8673 16.5153 18.4193 15.9393C17.9713 15.3553 17.7473 14.6953 17.7473 13.9593Z" fill="#83888F" fill-opacity="1.000000" fill-rule="evenodd"/>
</svg>
